<svg xmlns="http://www.w3.org/2000/svg" viewBox="0 0 720 460" role="img" aria-labelledby="title">
  <title id="title">Teclado gamer</title>
  <rect width="720" height="460" fill="#090d1a"/>
  <circle cx="530" cy="110" r="160" fill="#ff4ecd" opacity=".11"/>
  <rect x="78" y="126" width="564" height="244" rx="30" fill="#121a31" stroke="#35d7ff" stroke-width="10"/>
  <g fill="#1b2744" stroke="#ffffff" stroke-opacity=".18" stroke-width="3">
    <rect x="116" y="164" width="52" height="38" rx="6"/>
    <rect x="184" y="164" width="52" height="38" rx="6"/>
    <rect x="252" y="164" width="52" height="38" rx="6"/>
    <rect x="320" y="164" width="52" height="38" rx="6"/>
    <rect x="388" y="164" width="52" height="38" rx="6"/>
    <rect x="456" y="164" width="52" height="38" rx="6"/>
    <rect x="524" y="164" width="52" height="38" rx="6"/>
    <rect x="116" y="224" width="72" height="38" rx="6"/>
    <rect x="204" y="224" width="52" height="38" rx="6"/>
    <rect x="272" y="224" width="52" height="38" rx="6"/>
    <rect x="340" y="224" width="52" height="38" rx="6"/>
    <rect x="408" y="224" width="124" height="38" rx="6"/>
    <rect x="116" y="284" width="320" height="38" rx="6"/>
    <rect x="452" y="284" width="52" height="38" rx="6"/>
    <rect x="520" y="284" width="52" height="38" rx="6"/>
  </g>
  <path d="M116 202h460M116 262h460M116 322h460" stroke="#ff4ecd" stroke-width="5" opacity=".48"/>
  <circle cx="602" cy="284" r="26" fill="#a7ff3d"/>
</svg>
